<?xml version="1.0" standalone="no"?>
<!DOCTYPE svg PUBLIC "-//W3C//DTD SVG 20010904//EN"
 "http://www.w3.org/TR/2001/REC-SVG-20010904/DTD/svg10.dtd">
<svg version="1.0" xmlns="http://www.w3.org/2000/svg"
 width="984.000000pt" height="984.000000pt" viewBox="0 0 984.000000 984.000000"
 preserveAspectRatio="xMidYMid meet">
<metadata>
Created by potrace 1.14, written by Peter Selinger 2001-2017
</metadata>
<g transform="translate(0.000000,984.000000) scale(0.100000,-0.100000)"
fill="#000000" stroke="none">
<path d="M8608 9645 c-2 -1 -28 -5 -58 -9 -30 -3 -62 -8 -70 -9 -8 -2 -42 -9
-75 -16 -33 -8 -67 -15 -75 -16 -8 -2 -16 -4 -17 -5 -3 -3 -3 -3 -48 -15 -16
-4 -36 -12 -42 -18 -7 -5 -13 -7 -13 -4 0 6 -98 -31 -160 -61 -19 -9 -38 -15
-42 -14 -5 1 -8 -2 -8 -8 0 -5 -5 -10 -11 -10 -20 0 -180 -100 -254 -158 -71
-56 -275 -259 -275 -274 0 -5 -11 -21 -24 -36 -32 -35 -96 -132 -96 -143 0 -5
-5 -9 -12 -9 -6 0 -8 -3 -5 -6 4 -4 -2 -19 -13 -33 -20 -29 -91 -166 -95 -185
-1 -6 -8 -24 -14 -41 -7 -16 -30 -81 -51 -143 -32 -95 -44 -118 -79 -150 -61
-56 -83 -73 -113 -84 -16 -5 -28 -15 -28 -21 0 -6 -3 -8 -6 -5 -3 4 -20 0 -37
-7 -73 -30 -190 -34 -282 -10 -103 27 -190 75 -375 206 -183 130 -286 190
-455 265 -59 26 -196 71 -236 78 -19 3 -44 8 -56 11 -13 3 -33 7 -45 10 -101
24 -424 23 -538 0 -14 -3 -41 -8 -60 -11 -19 -3 -41 -7 -49 -10 -8 -2 -30 -7
-50 -10 -20 -3 -90 -21 -156 -41 -66 -19 -126 -36 -132 -36 -7 0 -13 -4 -13
-9 0 -4 -7 -8 -15 -8 -49 0 -381 -167 -460 -232 -5 -4 -39 -31 -75 -59 -60
-47 -206 -189 -240 -234 -9 -11 -29 -38 -45 -60 -16 -22 -32 -42 -35 -45 -3
-3 -11 -17 -19 -32 -8 -16 -18 -28 -23 -28 -4 0 -8 -9 -8 -19 0 -11 -3 -21 -7
-23 -17 -7 -130 -258 -117 -258 4 0 2 -6 -3 -12 -11 -14 -27 -68 -25 -80 1 -5
-3 -8 -9 -8 -5 0 -8 -4 -5 -9 4 -5 1 -22 -4 -37 -6 -14 -13 -43 -16 -63 -3
-20 -10 -55 -15 -78 -27 -125 -29 -531 -4 -623 3 -8 7 -31 9 -50 7 -47 21
-120 41 -205 10 -38 18 -74 19 -80 5 -23 50 -162 61 -190 7 -16 16 -41 20 -54
4 -13 14 -40 23 -60 9 -20 17 -41 18 -47 4 -22 147 -309 155 -312 5 -2 9 -8 9
-13 0 -5 18 -39 40 -75 22 -36 40 -68 40 -70 0 -4 99 -150 132 -194 53 -72
199 -254 207 -260 4 -3 12 -12 17 -22 5 -9 25 -34 44 -55 19 -21 52 -58 72
-83 20 -25 47 -57 60 -71 13 -14 48 -54 78 -89 30 -35 66 -75 80 -90 14 -15
50 -55 80 -90 30 -35 64 -74 75 -86 11 -12 45 -50 75 -85 30 -34 60 -67 65
-73 6 -6 37 -42 70 -81 33 -38 69 -79 81 -91 11 -12 38 -43 60 -70 21 -26 53
-63 69 -81 36 -39 38 -41 105 -128 30 -38 57 -72 61 -75 16 -14 111 -165 142
-226 86 -171 97 -326 32 -454 -43 -85 -143 -160 -234 -175 -19 -3 -38 -8 -43
-11 -4 -3 -8 0 -8 7 0 8 -4 8 -12 2 -7 -6 -20 -9 -28 -8 -8 2 -33 6 -55 9 -79
13 -348 110 -382 138 -7 6 -13 8 -13 5 0 -7 -107 48 -127 65 -7 5 -16 7 -22 4
-5 -3 -11 -2 -13 2 -1 5 -43 30 -93 56 -49 27 -91 52 -93 57 -2 5 -10 9 -18 9
-8 0 -33 12 -57 27 -23 15 -51 31 -62 37 -65 35 -221 132 -227 141 -4 5 -8 6
-8 2 0 -4 -6 -3 -12 3 -7 6 -29 21 -48 33 -19 11 -59 36 -89 54 -29 18 -55 33
-58 33 -2 0 -29 16 -59 35 -30 19 -56 35 -59 35 -2 0 -38 20 -78 45 -41 25
-80 45 -86 45 -6 0 -11 5 -11 10 0 6 -4 10 -10 10 -5 0 -33 14 -62 31 -29 18
-66 40 -83 49 -187 107 -377 217 -405 235 -19 12 -42 24 -50 28 -8 4 -33 18
-55 32 -22 14 -47 28 -55 32 -8 4 -55 31 -104 60 -49 29 -90 53 -92 53 -2 0
-33 18 -69 40 -36 22 -70 40 -75 40 -6 0 -10 5 -10 10 0 6 -4 10 -10 10 -5 0
-93 48 -195 108 -102 59 -197 114 -213 122 -15 8 -29 17 -32 20 -15 15 -228
113 -305 140 -101 35 -215 64 -292 74 -18 3 -37 7 -43 11 -5 3 -10 2 -10 -4 0
-7 -8 -7 -22 -2 -37 13 -233 5 -327 -14 -16 -3 -89 -23 -168 -47 -24 -7 -43
-16 -43 -20 0 -4 -7 -8 -16 -8 -20 0 -105 -46 -184 -100 -70 -47 -191 -167
-229 -225 -14 -22 -30 -43 -36 -47 -5 -4 -6 -8 -2 -8 5 0 -1 -13 -12 -29 -24
-33 -74 -141 -86 -186 -4 -16 -9 -34 -11 -40 -37 -131 -53 -283 -40 -380 3
-22 8 -60 10 -85 3 -25 9 -57 15 -72 5 -14 7 -28 4 -31 -3 -3 -1 -12 3 -19 5
-7 9 -17 9 -23 1 -8 9 -36 30 -105 1 -3 5 -14 9 -25 5 -11 14 -36 21 -56 15
-40 97 -211 105 -219 3 -3 16 -25 29 -50 14 -25 27 -47 31 -50 3 -3 21 -30 40
-60 19 -30 37 -57 40 -60 3 -3 22 -27 41 -55 41 -60 49 -71 69 -93 9 -9 29
-35 45 -57 15 -22 36 -47 44 -56 20 -20 33 -37 112 -136 34 -43 65 -79 70 -81
5 -2 9 -10 9 -17 0 -7 4 -15 9 -17 4 -1 35 -39 68 -83 206 -276 315 -499 349
-711 3 -20 8 -46 10 -58 6 -30 6 -213 -1 -261 -38 -277 -200 -522 -498 -756
-155 -120 -163 -132 -162 -209 2 -56 15 -87 50 -122 91 -91 335 -46 570 106
62 40 197 139 226 166 73 68 152 147 171 172 13 16 32 40 44 52 12 13 32 41
44 62 13 22 27 41 30 44 6 5 64 101 66 110 0 3 14 34 31 70 17 36 36 83 42
105 7 22 15 47 18 55 3 8 7 20 7 25 1 6 5 24 9 40 23 96 31 173 31 300 -1 106
-12 252 -21 267 -2 4 -6 22 -8 40 -3 18 -16 76 -30 128 -14 52 -27 102 -29
110 -5 17 -43 125 -56 155 -59 143 -86 202 -151 330 -42 83 -89 173 -104 200
-39 67 -127 243 -142 280 -17 45 -44 128 -49 150 -4 20 -10 47 -19 87 -3 13
-6 55 -6 93 0 79 20 140 50 148 22 5 95 2 126 -6 56 -15 218 -87 223 -100 2
-4 8 -5 13 -1 5 3 9 0 9 -5 0 -6 5 -11 11 -11 7 0 45 -20 87 -45 41 -25 78
-45 83 -45 5 0 9 -4 9 -10 0 -5 5 -10 11 -10 20 0 589 -392 597 -412 2 -4 10
-8 18 -8 8 0 14 -4 14 -8 0 -5 12 -15 28 -23 15 -8 29 -17 32 -20 8 -9 244
-183 254 -188 5 -2 16 -9 25 -17 26 -21 101 -76 176 -129 39 -27 75 -53 80
-58 6 -5 48 -35 95 -68 47 -33 94 -67 105 -75 32 -23 270 -188 288 -199 9 -5
46 -31 84 -56 123 -84 274 -179 283 -179 6 0 10 -4 10 -10 0 -5 4 -10 9 -10 5
0 35 -16 67 -36 33 -20 73 -44 89 -55 117 -71 552 -289 578 -289 4 0 26 -8 50
-19 41 -18 133 -53 152 -58 6 -1 64 -15 130 -32 158 -39 189 -43 325 -45 130
-1 200 7 315 35 44 11 89 21 99 24 30 7 90 27 101 34 6 3 17 6 25 8 17 3 263
123 270 132 3 4 30 22 60 41 66 42 175 124 211 159 14 15 41 40 60 57 69 64
138 141 242 274 7 8 31 44 55 80 23 36 45 70 49 75 28 37 155 292 169 340 2 6
14 39 27 75 24 68 53 167 61 210 2 14 7 36 10 50 42 179 42 530 0 662 -3 11
-7 30 -9 41 -2 12 -13 54 -24 92 -12 39 -23 77 -25 85 -17 64 -107 254 -180
380 -27 47 -54 94 -60 105 -24 43 -111 170 -118 173 -5 2 -8 8 -8 13 0 6 -5
15 -10 22 -35 41 -110 148 -110 156 0 5 -3 11 -7 13 -7 3 -75 89 -125 159 -9
13 -59 81 -112 151 -52 69 -99 135 -105 146 -6 11 -17 26 -24 34 -7 7 -39 51
-72 98 -32 47 -62 87 -65 90 -3 3 -39 52 -80 110 -40 58 -76 107 -80 110 -3 3
-39 52 -80 110 -41 58 -80 112 -87 120 -12 15 -95 130 -123 170 -8 12 -33 47
-56 78 -22 32 -62 89 -89 127 -27 39 -55 76 -62 83 -7 7 -13 20 -13 28 0 8 -4
14 -10 14 -5 0 -19 18 -30 40 -11 22 -24 40 -29 40 -5 0 -14 13 -21 29 -6 16
-20 37 -31 47 -10 9 -16 21 -13 25 3 5 1 9 -4 9 -13 0 -25 44 -28 102 -1 31 4
59 18 84 24 46 35 57 76 78 82 42 161 15 377 -128 108 -71 202 -123 310 -169
83 -36 116 -49 125 -52 3 0 41 -13 85 -27 122 -40 158 -49 325 -79 128 -23
167 -27 345 -27 135 -1 157 0 275 13 68 7 246 43 280 55 14 5 36 11 50 14 80
13 463 172 482 200 4 6 8 8 8 4 0 -4 44 19 98 53 53 33 106 66 116 72 59 36
245 186 324 261 68 64 142 117 142 101 0 -3 10 0 23 7 12 6 27 13 32 14 11 2
176 82 215 105 97 56 260 178 318 237 12 13 22 21 22 18 0 -3 24 21 53 52 28
31 62 67 75 79 12 12 22 25 22 28 0 3 14 19 30 35 17 17 28 30 25 30 -4 0 9
19 28 43 62 77 138 197 158 250 6 15 16 27 22 27 6 0 8 3 4 6 -3 4 7 32 22 63
26 51 68 164 76 201 2 8 4 15 5 15 3 0 16 59 24 106 3 19 8 45 12 59 12 50 12
301 -1 368 -7 37 -15 81 -18 99 -3 17 -9 38 -13 45 -5 7 -9 18 -9 23 -2 25
-53 138 -94 210 -96 168 -255 314 -441 403 -123 59 -179 77 -350 108 -33 6
-287 14 -292 9z m223 -339 c186 -17 389 -120 494 -248 22 -27 45 -55 51 -62
43 -46 110 -223 119 -314 12 -114 12 -142 -1 -234 -50 -362 -306 -739 -670
-986 -32 -21 -66 -40 -144 -77 -41 -20 -83 -41 -94 -46 -10 -6 -45 -19 -77
-29 -73 -24 -97 -36 -130 -67 l-26 -24 -39 47 c-22 25 -47 54 -56 63 -10 8
-18 19 -18 24 0 4 -10 18 -23 30 -13 12 -52 58 -87 102 -36 44 -69 85 -75 91
-5 7 -24 29 -42 50 -17 22 -39 49 -50 61 -23 28 -35 42 -113 138 -35 44 -67
82 -70 85 -3 3 -35 41 -70 85 -35 44 -71 87 -79 97 -9 9 -25 28 -36 42 -11 15
-29 37 -41 49 -46 50 -95 117 -90 125 3 5 7 19 9 33 13 66 123 300 173 366 13
17 24 35 24 38 0 4 6 12 13 20 6 7 23 28 37 47 49 65 110 129 204 212 23 21
205 141 215 142 3 0 31 12 61 26 60 28 190 74 230 81 14 3 32 8 40 11 18 6 76
15 145 22 27 3 50 6 52 7 3 4 86 0 164 -7z m-3451 -911 c96 -16 237 -62 338
-111 93 -45 354 -208 372 -233 12 -16 206 -135 265 -162 73 -35 78 -39 82 -89
2 -19 5 -48 8 -65 10 -51 15 -89 19 -125 2 -19 4 -35 6 -35 2 0 6 -32 13 -101
3 -29 10 -78 16 -110 11 -67 20 -121 27 -179 4 -37 7 -52 19 -126 3 -14 7 -41
9 -60 6 -44 15 -106 21 -144 3 -16 7 -52 10 -80 3 -27 8 -61 11 -75 11 -62 13
-99 6 -104 -4 -2 -39 2 -77 11 -39 8 -80 16 -91 18 -12 2 -31 8 -43 14 -11 7
-21 9 -21 7 0 -3 -19 2 -42 10 -24 9 -47 17 -53 18 -25 7 -74 27 -148 60 -32
14 -62 26 -67 26 -6 0 -10 4 -10 8 0 5 -6 9 -12 9 -12 0 -236 138 -248 152 -3
3 -21 15 -40 25 -19 11 -37 22 -40 25 -11 13 -149 79 -178 86 -18 3 -32 9 -32
11 0 3 -21 85 -46 182 -25 97 -47 185 -49 195 -2 10 -7 27 -10 37 -3 10 -7 27
-9 37 -2 10 -34 135 -71 278 -36 143 -68 269 -69 280 -2 11 -6 27 -9 35 -4 8
-13 43 -22 78 -32 131 -44 178 -51 196 -7 17 -2 18 87 12 52 -3 110 -8 129
-11z m-556 -36 c3 -3 8 -16 10 -30 2 -13 5 -24 6 -24 1 0 3 -7 5 -15 2 -8 20
-80 40 -160 20 -80 38 -152 40 -160 2 -8 22 -87 45 -175 23 -88 43 -168 45
-178 2 -10 7 -27 10 -37 3 -10 8 -28 10 -39 3 -12 7 -30 10 -42 2 -11 7 -30
11 -42 4 -12 9 -31 10 -42 2 -11 15 -63 29 -115 15 -52 28 -104 30 -115 3 -11
12 -48 21 -83 l17 -63 -28 -22 c-117 -90 -211 -226 -238 -342 l-12 -54 -30 14
c-187 88 -287 135 -290 135 -2 0 -50 22 -107 48 -56 27 -118 55 -135 63 -18 8
-33 17 -33 20 0 3 -6 6 -12 6 -7 0 -53 19 -101 42 -49 23 -112 53 -140 65 -29
13 -81 37 -117 53 -36 17 -72 33 -80 37 -8 3 -22 10 -30 15 -8 4 -50 24 -92
44 -44 21 -75 41 -74 49 2 7 6 36 10 63 9 58 43 191 56 220 5 11 16 39 23 62
18 52 117 233 129 233 4 0 8 5 8 12 0 10 77 105 120 148 57 56 212 180 226
180 4 0 15 6 23 14 14 12 176 98 191 102 3 0 16 5 30 11 86 36 253 88 307 97
7 1 15 5 18 8 7 7 32 5 39 -3z m2556 -492 c25 -30 59 -72 75 -92 17 -21 46
-57 65 -80 19 -23 51 -61 70 -84 19 -24 40 -48 45 -54 6 -7 30 -37 55 -67 25
-30 49 -60 55 -66 5 -7 17 -20 25 -31 50 -62 106 -130 120 -145 8 -9 26 -31
40 -49 14 -18 30 -37 35 -43 6 -6 32 -38 59 -71 27 -33 56 -67 63 -76 13 -15
8 -21 -42 -55 -31 -22 -63 -45 -71 -52 -8 -7 -14 -10 -14 -5 0 4 -4 3 -8 -2
-10 -15 -115 -75 -203 -118 -134 -65 -323 -136 -404 -151 -11 -2 -38 -9 -60
-15 -22 -6 -58 -13 -80 -16 -22 -3 -49 -7 -60 -10 -11 -2 -54 -7 -95 -11 -41
-3 -78 -8 -83 -11 -9 -5 -16 13 -21 57 -9 77 -24 185 -26 185 -1 0 -3 14 -4
30 -4 38 -28 198 -41 273 -2 15 -7 50 -9 78 -3 28 -8 57 -10 65 -3 8 -8 32
-10 54 -3 22 -8 58 -11 80 -3 22 -8 56 -10 75 -2 19 -6 46 -9 60 -3 14 -8 45
-11 70 -16 126 -19 146 -25 175 -5 23 1 42 13 42 119 1 292 65 415 153 l57 41
35 -40 c19 -22 55 -64 80 -94z m-3677 -1071 c29 -13 84 -39 122 -57 39 -18 72
-33 75 -34 3 0 45 -20 93 -43 49 -23 91 -42 92 -42 4 0 80 -35 294 -136 62
-30 115 -54 117 -54 1 0 59 -27 129 -60 70 -33 128 -60 130 -60 3 0 36 -15 74
-34 38 -19 72 -32 74 -30 2 3 10 -2 17 -11 7 -8 17 -15 22 -15 45 0 108 -65
183 -189 6 -9 12 -18 16 -21 3 -3 25 -34 50 -70 24 -36 48 -69 52 -75 4 -5 25
-35 47 -65 22 -30 43 -60 47 -65 43 -55 63 -85 56 -86 -4 0 -17 -2 -28 -5 -11
-2 -42 -6 -70 -9 -27 -3 -61 -7 -75 -10 -14 -2 -43 -6 -65 -9 -87 -11 -131
-17 -155 -21 -14 -2 -50 -6 -80 -10 -30 -3 -66 -7 -80 -10 -23 -4 -67 -10
-160 -20 -19 -2 -55 -7 -80 -10 -25 -4 -61 -8 -80 -10 -19 -2 -53 -6 -75 -10
-52 -7 -98 -13 -160 -20 -27 -3 -59 -7 -70 -9 -19 -3 -28 6 -67 69 -7 11 -16
22 -20 25 -13 10 -111 165 -167 264 -80 142 -154 307 -202 451 -11 33 -23 67
-26 75 -3 8 -7 20 -8 25 -2 6 -14 55 -28 110 -14 55 -28 120 -32 145 -4 25 -9
54 -12 65 -8 39 -12 95 -7 95 3 0 29 -11 57 -24z m1934 -1472 c7 -7 13 -15 13
-19 0 -8 63 -89 73 -93 4 -2 7 -8 7 -13 0 -8 51 -80 70 -99 3 -3 10 -13 15
-22 10 -18 212 -298 239 -333 72 -90 146 -197 142 -203 -2 -4 -21 -9 -42 -10
-20 -2 -41 -5 -46 -8 -5 -3 -19 -7 -31 -9 -53 -6 -118 -17 -193 -30 -44 -8
-94 -17 -111 -19 -16 -1 -34 -5 -39 -8 -5 -3 -32 -8 -59 -12 -28 -3 -86 -12
-130 -20 -44 -8 -96 -17 -115 -20 -19 -3 -45 -8 -56 -10 -12 -2 -39 -7 -60
-10 -34 -6 -64 -11 -126 -22 -11 -2 -38 22 -75 64 -32 37 -62 72 -68 78 -16
17 -128 145 -148 168 -22 25 -112 128 -147 166 -34 38 -117 133 -175 200 -26
30 -65 75 -86 99 -22 24 -38 46 -36 47 1 2 20 4 41 6 20 1 40 6 42 10 3 5 10
6 15 2 5 -3 59 2 119 11 60 8 128 17 152 20 24 2 57 6 73 9 17 2 50 7 75 10
25 3 65 8 90 11 25 3 63 8 85 10 48 5 107 13 155 21 19 3 53 7 75 9 22 2 60 7
85 10 25 3 63 8 84 10 22 3 41 6 43 8 8 8 39 3 50 -9z m-4407 -768 c14 -3 36
-8 50 -11 14 -4 36 -8 51 -10 14 -2 38 -11 55 -20 16 -8 35 -15 42 -15 21 0
189 -79 272 -128 41 -25 91 -54 110 -64 236 -134 388 -224 402 -237 15 -14 18
-41 20 -198 2 -101 5 -183 8 -183 7 0 6 -227 -1 -234 -3 -3 -14 3 -24 14 -10
11 -22 20 -27 20 -5 0 -18 9 -30 20 -12 11 -28 20 -35 20 -7 0 -13 5 -13 10 0
6 -7 10 -15 10 -8 0 -15 5 -15 10 0 6 -5 10 -11 10 -6 0 -29 13 -52 28 -98 67
-346 193 -439 223 -35 11 -92 26 -127 33 l-64 12 -52 99 c-28 55 -74 143 -101
195 -27 52 -52 97 -56 98 -5 2 -8 11 -8 21 0 9 -4 21 -9 27 -14 15 -131 243
-131 255 0 10 136 7 200 -5z m-520 -119 c9 -18 58 -113 110 -212 51 -99 112
-216 134 -260 23 -44 43 -82 46 -85 3 -3 17 -29 32 -59 l26 -54 -29 -31 c-17
-17 -45 -62 -64 -101 -32 -68 -41 -97 -51 -179 -2 -22 -5 -41 -7 -42 -1 -1
-54 48 -119 109 -64 62 -189 181 -277 266 -152 145 -161 155 -155 185 2 17 7
45 10 61 12 78 61 188 114 260 37 49 123 135 135 135 4 0 18 9 32 20 35 27 45
25 63 -13z m5768 -280 c56 -85 102 -164 103 -174 0 -5 6 -15 14 -23 7 -8 31
-53 52 -100 57 -122 69 -148 88 -210 9 -30 19 -62 22 -70 12 -31 11 -40 -5
-41 -10 0 -39 -2 -67 -4 -27 -2 -104 -6 -170 -10 -66 -3 -149 -8 -185 -10
-263 -17 -382 -24 -505 -30 l-100 -5 -29 91 c-26 82 -117 276 -135 289 -4 3
-10 12 -13 20 -3 8 -31 50 -62 93 -31 43 -56 82 -56 88 0 5 10 9 23 10 12 0
31 3 42 5 11 3 34 7 50 9 80 12 101 16 115 20 8 2 35 6 60 9 25 3 56 8 70 11
29 7 133 25 170 30 14 2 25 4 25 5 0 1 11 3 25 5 14 2 52 8 85 14 33 6 76 13
95 16 19 3 49 8 65 11 17 3 37 7 46 10 9 2 36 7 59 9 24 2 45 7 48 9 9 10 23
-5 70 -77z m-3860 -318 c2 -5 8 -9 13 -9 5 0 38 -18 74 -40 36 -22 67 -40 69
-40 3 0 41 -22 85 -50 45 -27 84 -49 86 -50 5 0 26 -12 83 -47 15 -10 29 -18
32 -18 3 0 50 -27 105 -59 217 -127 220 -129 221 -156 1 -28 11 -107 19 -160
3 -19 12 -80 21 -135 8 -55 17 -111 19 -125 2 -14 6 -45 10 -70 3 -25 8 -56
10 -70 2 -14 7 -45 11 -70 4 -25 8 -56 11 -70 8 -50 10 -110 3 -110 -3 0 -15
8 -26 19 -11 10 -30 24 -43 30 -12 7 -30 19 -39 26 -36 30 -153 115 -158 115
-3 0 -11 6 -19 13 -16 15 -47 39 -67 52 -20 13 -219 156 -235 170 -7 5 -19 16
-27 23 -8 6 -19 12 -24 12 -5 0 -19 11 -32 25 -13 14 -29 25 -37 25 -7 0 -13
3 -13 8 0 4 -18 18 -40 32 -22 14 -40 28 -40 32 0 5 -4 8 -10 8 -5 0 -19 8
-31 18 -57 45 -57 45 -59 148 -1 55 -3 128 -5 164 -2 36 -6 136 -9 223 l-7
159 23 -8 c13 -3 25 -11 26 -15z m-1995 -621 c150 -147 385 -370 416 -396 17
-14 31 -28 31 -33 0 -4 27 -56 60 -115 33 -59 60 -111 60 -115 0 -4 3 -9 8
-11 9 -4 149 -288 184 -373 18 -45 31 -81 34 -90 1 -5 12 -35 22 -65 40 -108
78 -270 64 -270 -4 0 -9 13 -10 29 -3 40 -56 199 -92 275 -17 35 -30 66 -30
70 0 3 -11 24 -25 46 -14 22 -23 40 -20 40 3 0 1 6 -5 13 -5 6 -42 62 -81 122
-63 97 -174 250 -204 281 -5 6 -21 26 -35 44 -14 19 -32 41 -40 50 -9 9 -29
34 -45 55 -17 22 -34 45 -40 51 -5 7 -17 20 -25 31 -8 10 -26 32 -40 49 -14
17 -34 43 -45 58 -11 16 -27 35 -35 44 -39 39 -208 292 -195 292 1 0 41 -37
88 -82z m6183 -97 c-5 -77 -8 -94 -28 -191 -14 -66 -10 -52 -33 -125 -11 -33
-19 -62 -20 -65 -8 -48 -162 -360 -182 -367 -7 -3 -26 5 -42 16 -16 12 -31 21
-34 21 -5 0 -169 92 -197 110 -8 6 -26 16 -40 22 -14 7 -56 31 -95 54 -69 40
-121 70 -212 120 -27 15 -74 42 -106 60 -32 19 -62 34 -68 34 -5 0 -9 3 -9 8
0 4 -22 17 -48 30 -26 13 -56 30 -66 38 -20 14 -20 15 2 52 33 53 69 135 77
171 4 19 13 31 23 32 9 1 33 2 52 4 19 2 91 6 160 9 69 4 152 8 185 10 33 3
110 7 170 10 61 4 148 9 195 12 47 3 122 7 168 8 45 2 84 5 87 8 3 2 19 3 36
0 l30 -4 -5 -77z m-2999 22 c26 -14 65 -37 86 -50 42 -26 82 -50 167 -96 30
-17 68 -38 85 -47 16 -9 45 -42 65 -73 19 -31 85 -134 145 -229 61 -94 117
-183 125 -197 8 -14 17 -28 20 -31 3 -3 11 -17 19 -32 8 -16 18 -28 23 -28 4
0 8 -5 8 -10 0 -6 23 -44 50 -86 28 -41 50 -77 50 -79 0 -4 107 -172 127 -201
5 -5 13 -18 18 -27 6 -9 41 -65 78 -123 37 -59 66 -108 64 -111 -3 -2 -33 7
-68 21 -34 15 -68 26 -76 26 -7 0 -13 5 -13 10 0 6 -6 10 -14 10 -13 0 -125
52 -221 103 -22 12 -50 26 -62 32 -13 5 -23 13 -23 18 0 4 -7 7 -15 7 -8 0
-55 25 -105 55 -50 30 -95 55 -100 55 -6 0 -10 4 -10 10 0 5 -11 12 -25 16
-14 3 -25 10 -25 15 0 5 -5 9 -11 9 -5 0 -37 18 -69 40 -32 22 -64 40 -69 40
-6 0 -11 3 -11 8 0 4 -20 18 -45 32 -25 14 -45 28 -45 32 0 5 -5 8 -11 8 -21
0 -42 33 -46 73 -5 46 -10 82 -13 82 -1 0 -3 14 -5 30 -5 45 -14 117 -19 145
-4 22 -19 120 -32 220 -3 19 -7 46 -9 59 -2 13 -7 45 -11 70 -3 25 -8 57 -10
71 -3 14 -7 45 -10 70 -2 25 -7 53 -10 63 -7 22 -3 22 53 -10z m1213 -518
c101 -4 164 4 246 31 l50 17 55 -31 c30 -17 78 -43 107 -58 28 -16 52 -32 52
-36 0 -4 7 -8 16 -8 9 0 28 -8 42 -18 15 -10 74 -45 132 -78 58 -32 113 -63
122 -69 9 -5 40 -23 69 -39 85 -46 94 -51 99 -56 6 -6 26 -17 104 -59 29 -16
79 -44 110 -63 32 -18 66 -38 77 -44 11 -6 22 -14 25 -17 14 -13 -152 -159
-266 -234 -90 -60 -190 -115 -190 -105 0 4 -4 2 -8 -3 -26 -36 -294 -114 -407
-118 l-57 -2 -49 75 c-44 68 -98 155 -124 199 -5 9 -20 31 -32 48 -13 17 -23
36 -23 41 0 6 -4 12 -8 14 -4 2 -34 46 -67 98 -32 52 -62 97 -65 100 -4 3 -10
12 -14 20 -9 19 -22 41 -69 113 -20 31 -37 62 -37 67 0 6 -4 10 -8 10 -5 0
-15 12 -23 28 -19 37 -52 86 -61 90 -5 2 -8 12 -8 22 0 10 -4 20 -8 22 -11 4
-56 70 -58 84 -1 8 28 4 90 -13 58 -16 125 -26 186 -28z"/>
<path d="M8512 8640 c-140 -64 -191 -241 -103 -360 57 -79 110 -105 206 -105
61 1 76 5 120 32 81 52 127 141 118 233 -4 48 -23 100 -35 100 -5 0 -8 5 -8
11 0 19 -58 69 -103 90 -55 25 -139 24 -195 -1z"/>
</g>
</svg>
